<svg width="24" height="24" viewBox="0 0 24 24" fill="none" xmlns="http://www.w3.org/2000/svg">
<path d="M13.002 7.009C16.17 7.009 17.968 9.106 18.229 11.639H18.309C18.7933 11.6383 19.2729 11.7331 19.7206 11.9178C20.1682 12.1026 20.5751 12.3737 20.9179 12.7157C21.2608 13.0577 21.5329 13.4639 21.7187 13.9111C21.9046 14.3583 22.0005 14.8377 22.001 15.322C22.0004 15.8062 21.9044 16.2855 21.7185 16.7326C21.5326 17.1797 21.2604 17.5857 20.9176 17.9276C20.5748 18.2695 20.1679 18.5406 19.7204 18.7253C19.2728 18.9099 18.7932 19.0047 18.309 19.004H7.69403C7.20984 19.0047 6.73027 18.9099 6.28269 18.7253C5.83511 18.5406 5.42829 18.2695 5.08546 17.9276C4.74262 17.5857 4.47049 17.1797 4.28459 16.7326C4.0987 16.2855 4.00268 15.8062 4.00203 15.322C4.00255 14.8377 4.09847 14.3583 4.28431 13.9111C4.47014 13.4639 4.74226 13.0577 5.0851 12.7157C5.42795 12.3737 5.83482 12.1026 6.28246 11.9178C6.7301 11.7331 7.20976 11.6383 7.69403 11.639H7.77403C8.03703 9.089 9.83403 7.009 13.002 7.009ZM13.002 8.506C10.93 8.506 9.12503 10.14 9.12503 12.396C9.12503 12.753 8.80603 13.034 8.44103 13.034H7.75103C6.48903 13.034 5.46703 14.034 5.46703 15.27C5.46703 16.505 6.48903 17.506 7.75003 17.506H18.253C19.514 17.506 20.536 16.506 20.536 15.27C20.536 14.035 19.514 13.034 18.253 13.034H17.563C17.197 13.034 16.878 12.754 16.878 12.396C16.878 10.111 15.073 8.506 13.002 8.506ZM10 4C11.617 4 13.05 4.815 13.9 6.062C13.602 6.02637 13.3022 6.00867 13.002 6.009C12.607 6.009 12.227 6.038 11.863 6.094C11.4204 5.78031 10.9058 5.58353 10.3668 5.52191C9.82786 5.46029 9.28207 5.53583 8.78011 5.74152C8.27814 5.94721 7.83628 6.27639 7.49554 6.69849C7.1548 7.1206 6.92622 7.62195 6.83103 8.156L6.75803 8.57C6.71733 8.80168 6.59627 9.0116 6.41611 9.16286C6.23596 9.31411 6.00825 9.39702 5.77303 9.397H5.28303C4.93067 9.39663 4.58611 9.50073 4.2929 9.69613C3.99969 9.89154 3.77099 10.1695 3.63571 10.4948C3.50044 10.8202 3.46465 11.1784 3.53287 11.524C3.6011 11.8697 3.77028 12.1874 4.01903 12.437C3.70403 12.837 3.45403 13.292 3.28403 13.784C2.75239 13.3763 2.35829 12.8156 2.15465 12.1773C1.95102 11.539 1.94761 10.8537 2.14489 10.2134C2.34217 9.57309 2.73069 9.00851 3.25824 8.59551C3.78579 8.1825 4.42711 7.94084 5.09603 7.903L5.35303 7.897C5.54639 6.80501 6.11808 5.81598 6.96781 5.10339C7.81754 4.3908 8.89105 4.00016 10 4Z" fill="black"/>
</svg>
