<svg width="149" height="70" viewBox="0 0 149 70" fill="none" xmlns="http://www.w3.org/2000/svg">
<path d="M33.5545 3.51147C34.5936 1.49617 37.403 1.49618 38.4421 3.51147L67.9419 60.7273H4.05469L33.5545 3.51147Z" fill="#FF0000"/>
<path d="M37.7194 28.1206C36.6272 26.9422 34.8243 26.9506 33.7421 28.1386L4.05469 60.727H67.9419L37.7194 28.1206Z" fill="#FD9904"/>
<path d="M38.4083 43.9188C36.737 42.9679 34.7106 42.9754 33.0462 43.9392L4.05469 60.7261H67.9419L38.4083 43.9188Z" fill="#FDE404"/>
<path d="M35.9983 69.9993L4.05469 60.7266H67.9419L35.9983 69.9993Z" fill="#FDE404"/>
<path d="M45.8267 48.6981L37.0781 43.6981C36.5183 43.3789 35.8827 43.2109 35.2355 43.2109C34.5883 43.2109 33.9526 43.3789 33.3929 43.6981L24.6448 48.6981C24.6103 48.718 24.5817 48.7463 24.5619 48.7806C24.542 48.8146 24.5316 48.8534 24.5316 48.8925C24.5316 48.9318 24.542 48.9704 24.5619 49.0046C24.5817 49.0386 24.6103 49.0672 24.6448 49.0868L35.1212 55.1479C35.1565 55.1684 35.1966 55.1792 35.2374 55.1792C35.2782 55.1792 35.3185 55.1684 35.3539 55.1479L45.8278 49.0868C45.8624 49.0669 45.8909 49.0386 45.9106 49.0043C45.9303 48.9701 45.9405 48.9316 45.9405 48.8922C45.9405 48.8528 45.9298 48.8143 45.9098 48.7803C45.8901 48.7463 45.8613 48.718 45.8267 48.6981ZM35.2358 49.9732C34.4767 49.9732 33.8608 49.5697 33.8608 49.0717C33.8608 48.5735 34.4767 48.1702 35.2358 48.1702C35.9948 48.1702 36.6107 48.5735 36.6107 49.0717C36.6107 49.5697 35.9948 49.9732 35.2358 49.9732ZM34.2045 56.6668L23.6641 50.62C23.6292 50.6 23.5897 50.5898 23.5495 50.5898C23.5093 50.5898 23.4698 50.6 23.435 50.62C23.4002 50.6396 23.3712 50.668 23.3511 50.7022C23.331 50.7364 23.3204 50.7753 23.3203 50.8149V60.6133C23.3212 61.0856 23.4477 61.5493 23.6873 61.9582C23.9269 62.3675 24.2712 62.7077 24.686 62.9452L33.9754 68.4232C34.0102 68.4428 34.0497 68.4534 34.09 68.4534C34.1303 68.4534 34.1697 68.4428 34.2045 68.4232C34.2393 68.4035 34.2684 68.3749 34.2884 68.3407C34.3084 68.3064 34.3191 68.2676 34.3191 68.2283V56.8617C34.3191 56.8223 34.3084 56.7835 34.2884 56.7493C34.2684 56.715 34.2393 56.6865 34.2045 56.6668ZM26.07 62.1424C25.5636 62.1424 25.1535 61.5369 25.1535 60.7904C25.1535 60.0439 25.5636 59.4381 26.07 59.4381C26.5764 59.4381 26.9866 60.0439 26.9866 60.7904C26.9866 61.5369 26.5764 62.1424 26.07 62.1424ZM31.5695 60.3396C31.0632 60.3396 30.6528 59.7339 30.6528 58.9874C30.6528 58.2409 31.0632 57.6354 31.5695 57.6354C32.0758 57.6354 32.4861 58.2409 32.4861 58.9874C32.4861 59.7339 32.0758 60.3396 31.5695 60.3396ZM46.8075 50.6216L36.267 56.7091C36.2322 56.7288 36.2034 56.7571 36.1831 56.7913C36.1631 56.8253 36.1524 56.8641 36.1524 56.9035V68.2272C36.1524 68.2665 36.1631 68.3054 36.1831 68.3396C36.2034 68.3738 36.2322 68.4024 36.267 68.4221C36.3018 68.4418 36.3413 68.4523 36.3816 68.4523C36.4219 68.4523 36.4613 68.4418 36.4961 68.4221L45.7848 62.9441C46.1995 62.7066 46.5441 62.3666 46.7837 61.9577C47.0232 61.5487 47.1502 61.0853 47.1513 60.6133V50.8181C47.1515 50.7785 47.1411 50.7394 47.1211 50.7052C47.1011 50.6707 47.072 50.6418 47.0372 50.6219C47.0024 50.6019 46.9627 50.5914 46.9224 50.5914C46.8821 50.5914 46.8423 50.6016 46.8075 50.6216ZM38.902 65.2973C38.3958 65.2973 37.9854 64.6918 37.9854 63.9453C37.9854 63.1989 38.3958 62.5931 38.902 62.5931C39.4083 62.5931 39.8187 63.1989 39.8187 63.9453C39.8187 64.6918 39.4083 65.2973 38.902 65.2973ZM38.902 60.3396C38.3958 60.3396 37.9854 59.7339 37.9854 58.9874C37.9854 58.2409 38.3958 57.6354 38.902 57.6354C39.4083 57.6354 39.8187 58.2409 39.8187 58.9874C39.8187 59.7339 39.4083 60.3396 38.902 60.3396ZM44.4016 62.1424C43.895 62.1424 43.485 61.5369 43.485 60.7904C43.485 60.0439 43.895 59.4381 44.4016 59.4381C44.9079 59.4381 45.318 60.0439 45.318 60.7904C45.318 61.5369 44.9079 62.1424 44.4016 62.1424ZM44.4016 57.1847C43.895 57.1847 43.485 56.5789 43.485 55.8324C43.485 55.0859 43.895 54.4802 44.4016 54.4802C44.9079 54.4802 45.318 55.0859 45.318 55.8324C45.318 56.5789 44.9079 57.1847 44.4016 57.1847Z" fill="black"/>
<path fill-rule="evenodd" clip-rule="evenodd" d="M91.2725 8.10866L91.805 3.93016C91.8433 3.62958 91.9445 3.33995 92.1023 3.07937C92.2601 2.81878 92.4712 2.59291 92.7221 2.41578C92.9732 2.23866 93.2588 2.11412 93.5611 2.04999C93.8635 1.98582 94.1761 1.98341 94.4795 2.04287C95.1222 2.1692 95.843 2.42474 96.5 2.42474C97.157 2.42474 97.8778 2.1692 98.5205 2.04287C98.8238 1.98349 99.1364 1.98599 99.4387 2.05024C99.7409 2.11445 100.026 2.23899 100.277 2.41612C100.528 2.5932 100.739 2.81907 100.897 3.07958C101.055 3.34008 101.156 3.62966 101.194 3.93016L101.728 8.10866C102.58 8.31721 104 8.72112 104 9.79696C104 10.969 102.34 11.3552 101.435 11.552C100.146 11.8326 98.402 12 96.5 12C94.598 12 92.8535 11.8326 91.565 11.552C90.659 11.3552 89 10.969 89 9.79696C89 8.72112 90.4198 8.31721 91.2725 8.10866ZM91.8898 10.1186C91.421 10.0165 91.0572 9.90562 90.7985 9.79696C91.0572 9.68825 91.421 9.57662 91.8898 9.47529C93.0433 9.22412 94.6738 9.06258 96.5 9.06258C98.3262 9.06258 99.9567 9.22412 101.11 9.47529C101.579 9.57737 101.943 9.68825 102.201 9.79696C101.943 9.90562 101.579 10.0165 101.11 10.1186C99.9567 10.3697 98.3262 10.5313 96.5 10.5313C94.6738 10.5313 93.0433 10.3697 91.8898 10.1186Z" fill="white"/>
<path d="M73.0838 2H86.18V5.55557H73.0838V2ZM72 28.752H86.18V32.8889H72V28.752ZM75.2514 59.778C79.3425 56.6666 79.2907 56.7958 84.1385 54.4446V57.3334C80.2369 61.1111 74.6012 66.4444 72 70L75.2514 59.778ZM86.8 15.4532H97.0645H109V18.8777H86.8V15.4532ZM91.8129 24.259H94.9161C94.5182 42.0615 93.0256 64.8887 93.0256 64.8887C93.0256 64.8887 87.8234 69.5558 86.18 64.8887C92.8089 69.3332 91.5235 40.3821 91.8129 24.259ZM98.5165 24.259H101.736L101.23 35.8058C101.23 37.6868 101.477 61.8753 102.273 61.8753C102.598 61.8753 105.334 61.8753 105.805 61.8753C106.564 61.8753 106.705 56.5558 106.814 48.6286C107.356 49.5691 108.108 53.5914 108.832 53.9273C108.615 63.1981 109.597 64.8887 107.318 64.8887C105.039 64.8887 101.736 64.8887 101.23 64.8887C98.6613 64.8887 98.5165 41.1802 98.5165 35.8058V30.1628V26.9496V24.259ZM77.419 3.77778H81.3207V58.0002L77.419 59.778V3.77778Z" fill="white"/>
<mask id="mask0_392_338" style="mask-type:luminance" maskUnits="userSpaceOnUse" x="112" y="0" width="37" height="68">
<path d="M148.445 0H112V68H148.445V0Z" fill="white"/>
</mask>
<g mask="url(#mask0_392_338)">
<path d="M114.431 23.5019H131.707V26.6412H114.431V23.5019ZM121.62 25.0254L123.591 26.2257C121.62 31.4424 116.246 47.5051 113 50.6444C112.691 49.6749 113.501 45.9137 113.501 45.9137C116.515 43.2361 119.958 29.4573 121.62 25.0254ZM124.325 28.0724C125.871 29.1803 124.085 28.6325 130.106 33.1962L126.305 33.0121C124.798 31.0731 124.789 31.3963 122.934 29.6881L124.325 28.0724ZM139.05 0.234375L141.794 0.788332C140.016 5.17409 137.118 9.79066 132.712 13.2993C132.248 12.6068 131.359 11.5912 130.741 11.1757C134.876 8.08255 137.659 3.83527 139.05 0.234375ZM138.741 3.83527H146.355V6.65139H137.079L138.741 3.83527ZM145.582 3.83527H146.123L146.625 3.74298L148.48 4.62013C146.084 14.7304 140.171 20.2703 133.214 23.0865C132.905 22.3016 132.248 21.1936 131.707 20.5935C137.968 18.3314 143.61 12.93 145.582 4.43546V3.83527ZM134.953 9.88299L136.924 8.12869C138.934 9.60604 141.485 11.8682 142.76 13.4839L140.673 15.4229C139.475 13.8533 137.04 11.4526 134.953 9.88299ZM140.441 18.1467L143.263 18.7468C141.176 23.5019 132.676 42.3128 127.458 45.9137C122.164 44.8757 125.137 46.4217 124.518 45.9137C129.427 42.8206 138.857 21.9784 140.441 18.1467ZM139.321 22.4401H147.63V25.3024H137.581L139.321 22.4401ZM146.896 22.4401H147.475L148.017 22.3016L149.833 23.1326C147.128 34.5356 135.507 64.8604 130.106 65.8984C130.106 71.3491 127.458 63.5626 124.325 62.0054C130.106 68.494 144.654 32.5505 146.896 22.9941V22.4401ZM135.762 29.6881L137.272 26.9643C139.398 28.6263 140.557 40.174 141.794 42.0206L140.441 43.5779C139.282 41.7312 137.927 31.4424 135.762 29.6881ZM118.257 12.3298V16.8079H128.615V12.3298H118.257ZM118.257 5.17409V9.60604H128.615V5.17409H118.257ZM115.784 2.31182H131.166V19.7163H115.784V2.31182ZM122.161 3.74298H124.518V18.2852H124.673L122 67.7031L120 62.9053L121.968 18.2852H122.161V3.74298Z" fill="white"/>
</g>
</svg>
