<svg width="144" height="239" viewBox="0 0 144 239" fill="none" xmlns="http://www.w3.org/2000/svg">
<g id="&#229;&#164;&#165;">
<mask id="mask0_362_706" style="mask-type:luminance" maskUnits="userSpaceOnUse" x="0" y="0" width="144" height="239">
<g id="clip0_20_140">
<path id="Vector" d="M144 0H0V238.077H144V0Z" fill="white"/>
</g>
</mask>
<g mask="url(#mask0_362_706)">
<g id="Group">
<path id="Vector_2" d="M9.60871 82.2831H77.8665V93.2741H9.60871V82.2831ZM38.0109 87.6169L45.7995 91.8195C38.0109 110.084 16.7804 166.321 3.95359 177.312C2.73139 173.918 5.9324 160.75 5.9324 160.75C17.843 151.375 31.4445 103.134 38.0109 87.6169ZM48.7011 98.2848C54.8085 102.164 47.7525 100.246 71.5395 116.224L56.5221 115.579C50.5677 108.791 50.5335 109.922 43.2021 103.942L48.7011 98.2848ZM106.881 0.820312L117.722 2.75979C110.699 18.1149 99.2451 34.2781 81.8373 46.5622C80.0049 44.1377 76.4931 40.5819 74.0487 39.1272C90.3891 28.2978 101.384 13.4275 106.881 0.820312ZM105.659 13.4275H135.742V23.2871H99.0921L105.659 13.4275ZM132.687 13.4275H134.826L136.811 13.1044L144.141 16.1754C134.673 51.5729 111.309 70.9689 83.8227 80.8285C82.6005 78.0807 80.0049 74.2014 77.8665 72.1002C102.604 64.1803 124.899 45.2693 132.687 15.5289V13.4275ZM90.6933 34.6014L98.4819 28.4594C106.422 33.6317 116.502 41.5517 121.54 47.2088L113.294 53.9974C108.56 48.5019 98.9391 40.0969 90.6933 34.6014ZM112.378 63.5337L123.525 65.6349C115.28 82.2831 81.6951 148.143 61.0797 160.75C40.1601 157.115 51.9069 162.528 49.4643 160.75C68.8575 149.92 106.118 76.9492 112.378 63.5337ZM107.95 78.5656H140.78V88.5867H101.078L107.95 78.5656ZM137.88 78.5656H140.17L142.308 78.0807L149.485 80.99C138.797 120.913 92.8821 227.085 71.5395 230.719C71.5395 249.802 61.0797 222.541 48.7011 217.089C71.5395 239.806 129.023 113.963 137.88 80.5052V78.5656ZM93.8901 103.942L99.8553 94.4055C108.254 100.224 112.835 140.654 117.722 147.119L112.378 152.572C107.797 146.106 102.442 110.084 93.8901 103.942ZM24.7251 43.1679V58.8463H65.6499V43.1679H24.7251ZM24.7251 18.1149V33.6317H65.6499V18.1149H24.7251ZM14.9529 8.09374H75.7281V69.0292H14.9529V8.09374ZM40.1493 13.1044H49.4643V64.0185H50.0745L39.5144 237.037L31.6122 220.24L39.3861 64.0185H40.1493V13.1044Z" fill="black"/>
</g>
</g>
</g>
</svg>
