<svg width="144" height="233" viewBox="0 0 144 233" fill="none" xmlns="http://www.w3.org/2000/svg">
<g id="&#231;&#142;&#169;">
<path id="Vector" fill-rule="evenodd" clip-rule="evenodd" d="M77.8443 20.9204L79.9168 6.61024C80.0659 5.58082 80.4598 4.58894 81.074 3.69652C81.6881 2.8041 82.5094 2.03054 83.4862 1.42394C84.4631 0.817334 85.5746 0.390814 86.7514 0.171205C87.9283 -0.0485476 89.1449 -0.0568245 90.3256 0.146803C92.8271 0.579459 95.6322 1.45462 98.1892 1.45462C100.746 1.45462 103.551 0.579459 106.053 0.146803C107.233 -0.0565391 108.45 -0.047977 109.626 0.172061C110.803 0.391956 111.914 0.818476 112.89 1.42508C113.867 2.03154 114.688 2.80509 115.302 3.69723C115.916 4.58937 116.31 5.58111 116.459 6.61024L118.537 20.9204C121.853 21.6346 127.378 23.0179 127.378 26.7023C127.378 30.7161 120.919 32.039 117.396 32.713C112.381 33.6737 105.592 34.2471 98.1892 34.2471C90.7868 34.2471 83.9974 33.6737 78.9827 32.713C75.4566 32.039 69 30.7161 69 26.7023C69 23.0179 74.5256 21.6346 77.8443 20.9204ZM80.2467 27.8038C78.4223 27.4542 77.0065 27.0745 75.9996 26.7023C77.0065 26.33 78.4223 25.9477 80.2467 25.6007C84.736 24.7405 91.0817 24.1873 98.1892 24.1873C105.297 24.1873 111.642 24.7405 116.132 25.6007C117.956 25.9503 119.372 26.33 120.379 26.7023C119.372 27.0745 117.956 27.4542 116.132 27.8038C111.642 28.664 105.297 29.2172 98.1892 29.2172C91.0817 29.2172 84.736 28.664 80.2467 27.8038Z" fill="black"/>
<path id="Vector_2" d="M4.21802 0H55.1871V12.1768H4.21802V0ZM0 91.6178H55.1871V105.785H0V91.6178ZM12.6541 197.873C28.5761 187.217 28.3747 187.66 47.2416 179.608V189.501C32.057 202.438 10.1234 220.703 0 232.88L12.6541 197.873ZM57.6 46.0734H97.5484H144V57.8012H57.6V46.0734ZM77.1097 76.2306H89.1871C87.6384 137.199 81.8295 215.376 81.8295 215.376C81.8295 215.376 61.5831 231.359 55.1871 215.376C80.986 230.597 75.9833 131.448 77.1097 76.2306ZM103.199 76.2306H115.73L113.759 115.775C113.759 122.217 114.721 205.056 117.818 205.056C119.085 205.056 129.733 205.056 131.564 205.056C134.52 205.056 135.069 186.838 135.491 159.689C137.603 162.91 140.53 176.686 143.345 177.836C142.501 209.586 146.325 215.376 137.455 215.376C128.584 215.376 115.731 215.376 113.759 215.376C103.763 215.376 103.199 134.181 103.199 115.775V96.4493V85.4453V76.2306ZM21.0901 6.0884H36.275V191.784L21.0901 197.873V6.0884Z" fill="black"/>
</g>
</svg>
