<svg width="26" height="23" viewBox="0 0 26 23" fill="none" xmlns="http://www.w3.org/2000/svg">
<path d="M13.3125 0.671875C10.2921 0.671875 7.84375 3.12023 7.84375 6.14062C7.84375 8.58246 11.418 13.033 12.7873 14.6484C13.0647 14.9757 13.5608 14.9757 13.8377 14.6484C15.207 13.033 18.7812 8.58246 18.7812 6.14062C18.7812 3.12023 16.3329 0.671875 13.3125 0.671875ZM13.3125 7.96354C12.3056 7.96354 11.4896 7.14757 11.4896 6.14062C11.4896 5.13368 12.3056 4.31771 13.3125 4.31771C14.3194 4.31771 15.1354 5.13368 15.1354 6.14062C15.1354 7.14757 14.3194 7.96354 13.3125 7.96354ZM1.68576 10.0447C1.42803 10.1478 1.20709 10.3257 1.05144 10.5556C0.895785 10.7854 0.812562 11.0566 0.8125 11.3342L0.8125 22.1988C0.8125 22.6901 1.30859 23.026 1.76476 22.8437L7.75694 20.1163V10C7.37326 9.30642 7.05946 8.63108 6.83464 7.98524L1.68576 10.0447ZM13.3125 16.2826C12.7018 16.2826 12.1241 16.0143 11.7279 15.5464C10.8746 14.5395 9.96701 13.3928 9.14583 12.2166V20.1159L17.4792 22.8937V12.217C16.658 13.3928 15.7509 14.5399 14.8971 15.5469C14.5009 16.0143 13.9232 16.2826 13.3125 16.2826ZM24.8602 7.66667L18.8681 10.3941V22.8941L24.9392 20.4657C25.197 20.3627 25.418 20.1847 25.5736 19.9549C25.7293 19.725 25.8125 19.4538 25.8125 19.1762V8.31163C25.8125 7.82031 25.3164 7.48437 24.8602 7.66667Z" fill="black"/>
</svg>
