<svg width="21" height="21" viewBox="0 0 21 21" fill="none" xmlns="http://www.w3.org/2000/svg">
<path d="M20.4011 14.8393L15.8073 12.8706C15.611 12.7869 15.3929 12.7693 15.1858 12.8203C14.9787 12.8714 14.7937 12.9883 14.6588 13.1536L12.6244 15.6392C9.4316 14.1338 6.86212 11.5643 5.35673 8.37148L7.84232 6.33706C8.0079 6.2024 8.12509 6.01745 8.17615 5.81023C8.22722 5.60301 8.20938 5.38479 8.12534 5.18861L6.15655 0.594775C6.06431 0.383299 5.90117 0.210635 5.69526 0.106557C5.48935 0.0024795 5.25358 -0.0264886 5.0286 0.0246481L0.762904 1.00904C0.545997 1.05913 0.352472 1.18126 0.213915 1.3555C0.0753574 1.52974 -4.99665e-05 1.7458 2.48403e-08 1.96841C2.48403e-08 12.4891 8.5273 21 19.0316 21C19.2543 21.0001 19.4704 20.9248 19.6447 20.7862C19.8191 20.6476 19.9413 20.4541 19.9914 20.2371L20.9758 15.9714C21.0266 15.7453 20.997 15.5086 20.8921 15.302C20.7872 15.0954 20.6136 14.9318 20.4011 14.8393Z" fill="black"/>
</svg>
