<svg width="23" height="23" viewBox="0 0 23 23" fill="none" xmlns="http://www.w3.org/2000/svg">
<path d="M11.5 0C5.14718 0 0 5.14718 0 11.5C0 17.8528 5.14718 23 11.5 23C17.8528 23 23 17.8528 23 11.5C23 5.14718 17.8528 0 11.5 0ZM14.1478 16.2345L10.0579 13.2621C9.91411 13.1554 9.83065 12.9885 9.83065 12.8123V5.00806C9.83065 4.70202 10.081 4.45161 10.3871 4.45161H12.6129C12.919 4.45161 13.1694 4.70202 13.1694 5.00806V11.3933L16.1139 13.5357C16.3643 13.7165 16.4153 14.0643 16.2345 14.3147L14.9268 16.1139C14.746 16.3597 14.3982 16.4153 14.1478 16.2345Z" fill="black"/>
</svg>
