<svg width="35" height="35" viewBox="0 0 35 35" fill="none" xmlns="http://www.w3.org/2000/svg">
<path d="M21.2578 13.4531V19.0078C21.2578 19.1484 21.1484 19.2578 21.0078 19.2578H20.1172C20.0312 19.2578 19.9531 19.2109 19.9141 19.1562L17.3672 15.7188V19.0156C17.3672 19.1562 17.2578 19.2656 17.1172 19.2656H16.2266C16.0859 19.2656 15.9766 19.1562 15.9766 19.0156V13.4609C15.9766 13.3203 16.0859 13.2109 16.2266 13.2109H17.1094C17.1875 13.2109 17.2734 13.25 17.3125 13.3203L19.8594 16.7578V13.4609C19.8594 13.3203 19.9687 13.2109 20.1094 13.2109H21C21.1406 13.2031 21.2578 13.3203 21.2578 13.4531ZM14.8516 13.2031H13.9609C13.8203 13.2031 13.7109 13.3125 13.7109 13.4531V19.0078C13.7109 19.1484 13.8203 19.2578 13.9609 19.2578H14.8516C14.9922 19.2578 15.1016 19.1484 15.1016 19.0078V13.4531C15.1016 13.3203 14.9922 13.2031 14.8516 13.2031ZM12.7031 17.8594H10.2734V13.4531C10.2734 13.3125 10.1641 13.2031 10.0234 13.2031H9.13282C8.9922 13.2031 8.88282 13.3125 8.88282 13.4531V19.0078C8.88282 19.0781 8.90626 19.1328 8.95313 19.1797C9.00001 19.2187 9.0547 19.25 9.12501 19.25H12.6953C12.8359 19.25 12.9453 19.1406 12.9453 19V18.1094C12.9453 17.9766 12.8359 17.8594 12.7031 17.8594ZM25.9453 13.2031H22.375C22.2422 13.2031 22.125 13.3125 22.125 13.4531V19.0078C22.125 19.1406 22.2344 19.2578 22.375 19.2578H25.9453C26.0859 19.2578 26.1953 19.1484 26.1953 19.0078V18.1172C26.1953 17.9766 26.0859 17.8672 25.9453 17.8672H23.5156V16.9297H25.9453C26.0859 16.9297 26.1953 16.8203 26.1953 16.6797V15.7813C26.1953 15.6406 26.0859 15.5313 25.9453 15.5313H23.5156V14.5938H25.9453C26.0859 14.5938 26.1953 14.4844 26.1953 14.3438V13.4531C26.1875 13.3203 26.0781 13.2031 25.9453 13.2031ZM35 6.38282V28.6719C34.9922 32.1719 32.125 35.0078 28.6172 35H6.32814C2.82814 34.9922 -0.00779639 32.1172 1.61028e-05 28.6172V6.32814C0.0078286 2.82814 2.88283 -0.00779639 6.38282 1.61028e-05H28.6719C32.1719 0.0078286 35.0078 2.87501 35 6.38282ZM30.1875 15.9609C30.1875 10.2578 24.4687 5.6172 17.4453 5.6172C10.4219 5.6172 4.70314 10.2578 4.70314 15.9609C4.70314 21.0703 9.23438 25.3516 15.3594 26.1641C16.8516 26.4844 16.6797 27.0312 16.3438 29.0391C16.2891 29.3594 16.0859 30.2969 17.4453 29.7266C18.8047 29.1562 24.7812 25.4062 27.4609 22.3281C29.3047 20.2969 30.1875 18.2422 30.1875 15.9609Z" fill="white"/>
</svg>
