<svg width="21" height="22" viewBox="0 0 21 22" fill="none" xmlns="http://www.w3.org/2000/svg">
<path d="M0 16.3535L9.375 21.875V12.3047L0 6.73828V16.3535ZM7.03125 12.5C7.46289 12.5 7.8125 13.0249 7.8125 13.6719C7.8125 14.3188 7.46289 14.8438 7.03125 14.8438C6.59961 14.8438 6.25 14.3188 6.25 13.6719C6.25 13.0249 6.59961 12.5 7.03125 12.5ZM2.34375 14.0625C2.77539 14.0625 3.125 14.5874 3.125 15.2344C3.125 15.8813 2.77539 16.4062 2.34375 16.4062C1.91211 16.4062 1.5625 15.8813 1.5625 15.2344C1.5625 14.5874 1.91211 14.0625 2.34375 14.0625ZM10.9375 12.3047V21.875L20.3125 16.3535V6.73828L10.9375 12.3047ZM13.2812 19.1406C12.8496 19.1406 12.5 18.6157 12.5 17.9688C12.5 17.3218 12.8496 16.7969 13.2812 16.7969C13.7129 16.7969 14.0625 17.3218 14.0625 17.9688C14.0625 18.6157 13.7129 19.1406 13.2812 19.1406ZM13.2812 14.8438C12.8496 14.8438 12.5 14.3188 12.5 13.6719C12.5 13.0249 12.8496 12.5 13.2812 12.5C13.7129 12.5 14.0625 13.0249 14.0625 13.6719C14.0625 14.3188 13.7129 14.8438 13.2812 14.8438ZM17.9688 16.4062C17.5371 16.4062 17.1875 15.8813 17.1875 15.2344C17.1875 14.5874 17.5371 14.0625 17.9688 14.0625C18.4004 14.0625 18.75 14.5874 18.75 15.2344C18.75 15.8813 18.4004 16.4062 17.9688 16.4062ZM17.9688 12.1094C17.5371 12.1094 17.1875 11.5845 17.1875 10.9375C17.1875 10.2905 17.5371 9.76562 17.9688 9.76562C18.4004 9.76562 18.75 10.2905 18.75 10.9375C18.75 11.5845 18.4004 12.1094 17.9688 12.1094ZM10.1562 0L0.78125 5.46875L10.1562 10.9375L19.5312 5.46875L10.1562 0ZM10.1562 5.85938C9.50928 5.85938 8.98438 5.50977 8.98438 5.07812C8.98438 4.64648 9.50928 4.29688 10.1562 4.29688C10.8032 4.29688 11.3281 4.64648 11.3281 5.07812C11.3281 5.50977 10.8032 5.85938 10.1562 5.85938Z" fill="black"/>
</svg>
