<svg width="26" height="26" viewBox="0 0 26 26" fill="none" xmlns="http://www.w3.org/2000/svg">
<g clip-path="url(#clip0_800_494)">
<path d="M13.4922 1.22656C6.80273 1.22656 1.38281 6.64648 1.38281 13.3359C1.38281 20.0254 6.80273 25.4453 13.4922 25.4453C20.1816 25.4453 25.6016 20.0254 25.6016 13.3359C25.6016 6.64648 20.1816 1.22656 13.4922 1.22656ZM20.5234 14.7031C20.5234 15.0254 20.2598 15.2891 19.9375 15.2891H15.4453V19.7812C15.4453 20.1035 15.1816 20.3672 14.8594 20.3672H12.125C11.8027 20.3672 11.5391 20.1035 11.5391 19.7812V15.2891H7.04688C6.72461 15.2891 6.46094 15.0254 6.46094 14.7031V11.9688C6.46094 11.6465 6.72461 11.3828 7.04688 11.3828H11.5391V6.89062C11.5391 6.56836 11.8027 6.30469 12.125 6.30469H14.8594C15.1816 6.30469 15.4453 6.56836 15.4453 6.89062V11.3828H19.9375C20.2598 11.3828 20.5234 11.6465 20.5234 11.9688V14.7031Z" fill="black"/>
</g>
<defs>
<clipPath id="clip0_800_494">
<rect width="25" height="25" fill="white" transform="translate(0.992188 0.835938)"/>
</clipPath>
</defs>
</svg>
